<svg width="80" height="40" viewBox="0 0 80 40" fill="none" xmlns="http://www.w3.org/2000/svg">
<rect width="80" height="40" rx="3" fill="#FEE500"/>
<path d="M15.1689 25.6501L12.3326 27.6637C12.134 27.8047 11.8589 27.6627 11.8589 27.4191V24.6094C11.8589 24.4319 11.7631 24.2678 11.6125 24.1737C8.07836 21.9656 7.7851 18.6731 8.09202 17.2749C9.09653 12.372 15.2073 11.7591 18.1371 12.0656C24.0094 12.9193 26.2067 16.5965 25.9849 19.1135C25.9849 24.662 19.0945 25.7198 15.4847 25.5574C15.3712 25.5523 15.2615 25.5844 15.1689 25.6501Z" fill="#181600"/>
<path d="M43.7656 23.976V25H30.7096V23.976H36.6296V21.24H32.6296V16.904H40.6296V14.552H32.5496V13.544H41.8456V17.88H33.8456V20.232H42.2616V21.24H37.8456V23.976H43.7656ZM54.9912 14.888H46.6232V13.848H56.1912V15.032C56.1912 17.5707 55.9512 19.9227 55.4712 22.088L54.3032 21.896C54.7619 19.7413 54.9912 17.4533 54.9912 15.032V14.888ZM58.0312 23.96V25H44.9752V23.96H58.0312ZM71.2248 12.696V23.24H69.9928V12.696H71.2248ZM59.7048 17.016C59.7048 16.2693 59.8595 15.6187 60.1688 15.064C60.4888 14.5093 60.9261 14.088 61.4808 13.8C62.0355 13.5013 62.6701 13.352 63.3848 13.352C64.0888 13.352 64.7181 13.5013 65.2728 13.8C65.8381 14.088 66.2755 14.5093 66.5848 15.064C66.9048 15.6187 67.0648 16.2693 67.0648 17.016C67.0648 17.752 66.9048 18.3973 66.5848 18.952C66.2755 19.5067 65.8381 19.9333 65.2728 20.232C64.7181 20.52 64.0888 20.664 63.3848 20.664C62.6701 20.664 62.0355 20.52 61.4808 20.232C60.9261 19.9333 60.4888 19.512 60.1688 18.968C59.8595 18.4133 59.7048 17.7627 59.7048 17.016ZM65.7688 17.352V16.68C65.7688 15.976 65.5448 15.416 65.0968 15C64.6595 14.5733 64.0888 14.36 63.3848 14.36C62.6701 14.36 62.0888 14.5733 61.6408 15C61.2035 15.4267 60.9848 15.9867 60.9848 16.68V17.352C60.9848 18.0453 61.2088 18.6053 61.6568 19.032C62.1048 19.448 62.6808 19.656 63.3848 19.656C64.0888 19.656 64.6595 19.448 65.0968 19.032C65.5448 18.6053 65.7688 18.0453 65.7688 17.352ZM62.3288 26.072V22.088H63.5608V25.88H71.5128V26.888H63.1288C62.8728 26.888 62.6755 26.8187 62.5368 26.68C62.3981 26.5413 62.3288 26.3387 62.3288 26.072Z" fill="#181600"/>
</svg>
