<svg width="56" height="55" viewBox="0 0 56 55" fill="none" xmlns="http://www.w3.org/2000/svg">
<path d="M30.9279 50.2277C30.448 50.2277 28.9872 50.2277 24.043 46.0604C21.3029 43.7509 18.712 41.1589 17.4429 39.4559C16.0706 37.615 15.0414 34.3816 14.3833 29.8466C13.8261 26.0034 13.5312 21.1702 13.5312 15.8695V14.4053H48.3256V15.8695C48.3256 21.1702 48.0307 26.0034 47.4735 29.8466C46.8154 34.3816 45.7862 37.615 44.414 39.4559C42.7984 41.6241 40.2108 44.2509 37.4921 46.4842C34.4695 48.9675 32.2609 50.2266 30.929 50.2266L30.9279 50.2277Z" fill="#02FEFF"/>
<path d="M31.0125 15.8701H14.9927C14.9927 25.7843 16.0185 35.0975 18.6151 38.582C21.1365 41.9645 28.9754 48.7641 30.9262 48.7641C32.877 48.7641 39.8953 43.0654 43.2374 38.582C45.8339 35.0975 46.8597 25.7854 46.8597 15.8701H31.0125Z" fill="#000E2B"/>
<path d="M30.9277 46.3636C30.5645 46.3636 29.0454 45.6617 25.895 43.0069C23.5204 41.0057 21.2143 38.7073 20.1559 37.288C18.2926 34.789 17.1513 27.7247 17.0649 18.2725H44.7905C44.7042 27.7247 43.5629 34.789 41.6996 37.288C40.3127 39.1491 38.0638 41.4272 35.6847 43.3825C33.1913 45.4308 31.4704 46.3647 30.9277 46.3647V46.3636Z" fill="#1A3262"/>
<path d="M30.928 24.6348C34.9223 24.6348 38.1604 21.3967 38.1604 17.4023C38.1604 13.408 34.9223 10.1699 30.928 10.1699C26.9336 10.1699 23.6956 13.408 23.6956 17.4023C23.6956 21.3967 26.9336 24.6348 30.928 24.6348Z" fill="#02FEFF"/>
<path d="M52.2159 24.992H37.6221V21.373C37.6221 19.522 37.5604 15.107 37.9427 12.9937C38.0873 14.1451 38.3486 15.0767 39.2589 15.0767C39.3004 15.0767 40.0908 14.8951 40.3285 14.2437C40.7792 13.0127 40.222 10.5597 39.2399 9.06635C39.417 9.16164 40.1267 9.46323 40.3902 9.19976C40.6884 8.90154 40.0224 6.35096 40.241 5C40.4384 6.82857 41.0292 8.87351 42.4766 10.9252C43.4778 12.3322 42.6582 12.7975 42.3353 13.8883C42.0875 14.7269 42.3151 16.0062 42.4059 16.9255C42.5136 17.8482 42.3779 19.6252 42.9878 20.8057C43.1672 21.1544 43.5271 21.373 43.9184 21.373H52.8358C52.7652 22.2778 52.3638 24.5369 52.2147 24.992" fill="#02FEFF"/>
<path d="M51.812 24.564H38.0501V21.8228C38.0501 20.0705 37.9503 16.9694 38.1218 14.9603C38.373 15.2821 38.8326 15.642 39.3562 15.6106C39.8798 15.5792 40.4034 15.2843 40.7296 14.3908C41.1792 13.162 40.7464 11.0801 40.0188 9.58227C40.9706 9.84685 40.872 9.70111 40.7173 8.63379C41.0783 9.50379 41.7106 10.6204 42.2768 11.4265C42.7062 12.1811 42.2297 12.7326 41.9236 13.7663C41.6635 14.6442 41.6725 16.0288 41.8182 17.0255C42.0424 18.5536 41.8709 19.5357 42.6983 21.3665C42.8183 21.6311 43.0817 21.8004 43.3721 21.8004H52.3815C52.2347 22.9551 52.0071 24.2209 51.8098 24.5628L51.812 24.564Z" fill="#000E2B"/>
<path d="M37.0479 6.97803C37.8472 8.40187 38.2632 10.0499 38.2486 10.6946C38.2295 11.5735 37.7116 13.7216 39.0536 13.901C40.27 14.0636 40.4808 11.7843 39.0536 9.51291C38.4907 8.61824 37.262 7.21347 37.0479 6.97915V6.97803Z" fill="#02FEFF"/>
<path d="M39.1747 13.4799C39.1545 13.4799 39.1332 13.4788 39.1119 13.4755C38.5378 13.3992 38.5008 12.629 38.6298 11.3251C38.6533 11.0863 38.6735 10.88 38.678 10.7029C38.6847 10.3957 38.6163 9.94501 38.4829 9.4248C38.5603 9.53468 38.6298 9.64006 38.6926 9.73872C39.6029 11.1872 39.8025 12.675 39.4695 13.277C39.3697 13.4564 39.2599 13.4799 39.1747 13.4799Z" fill="#000E2B"/>
<path d="M30.9275 26.3468C35.8674 26.3468 39.8719 22.3423 39.8719 17.4024C39.8719 12.4626 35.8674 8.45801 30.9275 8.45801C25.9877 8.45801 21.9832 12.4626 21.9832 17.4024C21.9832 22.3423 25.9877 26.3468 30.9275 26.3468Z" fill="#000E2B"/>
<mask id="mask0_6505_5424" style="mask-type:luminance" maskUnits="userSpaceOnUse" x="23" y="10" width="16" height="15">
<path d="M30.928 24.6348C34.9223 24.6348 38.1604 21.3967 38.1604 17.4023C38.1604 13.408 34.9223 10.1699 30.928 10.1699C26.9336 10.1699 23.6956 13.408 23.6956 17.4023C23.6956 21.3967 26.9336 24.6348 30.928 24.6348Z" fill="white"/>
</mask>
<g mask="url(#mask0_6505_5424)">
<path d="M28.0226 10.9868L28.0786 10.7524C27.1201 11.1639 26.2691 11.776 25.5774 12.5362L26.0998 12.5989L28.0237 10.9868H28.0226Z" fill="url(#paint0_linear_6505_5424)"/>
<path d="M34.0578 21.7435L32.1474 24.0295L29.2953 24.0273L27.5452 21.5496L28.6125 20.1414L29.1316 19.4575H32.7226L33.1396 20.1717L34.0578 21.7435Z" fill="url(#paint1_linear_6505_5424)"/>
<path d="M38.16 17.4019C38.16 17.69 38.1431 17.9748 38.1106 18.2551C37.9851 19.3168 37.6308 20.309 37.096 21.179L36.9043 20.6935L37.3785 18.477L37.5826 17.5263L38.1544 17.1519C38.1577 17.2348 38.1588 17.3178 38.1588 17.4019H38.16Z" fill="url(#paint2_linear_6505_5424)"/>
<path d="M35.7554 12.5987L36.2778 12.5359C35.5872 11.7769 34.7363 11.1647 33.7788 10.7544L33.8315 10.9865L35.7554 12.5987Z" fill="url(#paint3_linear_6505_5424)"/>
<path d="M29.295 24.0264L28.8757 24.338C29.526 24.5298 30.2144 24.634 30.9274 24.634C31.5037 24.634 32.0631 24.5668 32.6001 24.4389L32.1472 24.0297L29.295 24.0275V24.0264Z" fill="url(#paint4_linear_6505_5424)"/>
<path d="M33.8323 16.0409L36.0208 15.3301L35.7551 12.599L33.8323 10.9868L30.9555 11.7615L30.9275 13.9309L33.8323 16.0409Z" fill="url(#paint5_linear_6505_5424)"/>
<path d="M30.9275 13.9309L30.9556 11.7615L28.0227 10.9868L26.0988 12.599L25.8342 15.3301L28.0227 16.0409L30.9275 13.9309Z" fill="url(#paint6_linear_6505_5424)"/>
<path d="M24.841 20.2961L24.5618 20.8388C24.1369 20.054 23.8533 19.1806 23.7445 18.2546C23.7109 17.9743 23.6941 17.6895 23.6941 17.4014C23.6941 17.3184 23.6963 17.2355 23.6986 17.1514L24.2704 17.5258L24.4666 18.481L24.8399 20.2961H24.841Z" fill="url(#paint7_linear_6505_5424)"/>
<path d="M24.4634 18.4592L24.8413 20.2956L27.5454 21.549L28.6767 20.0568L29.1318 19.457L28.0219 16.0409L25.8346 15.3301L24.2717 17.5264L24.4634 18.4592Z" fill="url(#paint8_linear_6505_5424)"/>
<path d="M36.0208 15.3301L33.8323 16.0409L32.7224 19.457L33.0419 20.003L34.0577 21.743L36.9042 20.6936L37.3774 18.4827L37.5825 17.5264L36.0208 15.3301Z" fill="url(#paint9_linear_6505_5424)"/>
<path d="M24.4677 18.4804C24.2468 18.5869 24.0136 18.4871 23.7445 18.2551C23.7109 17.9748 23.6941 17.69 23.6941 17.4019C23.6941 17.3189 23.6963 17.2359 23.6986 17.1519L24.2704 17.5263L24.4666 18.4815L24.4677 18.4804Z" fill="url(#paint10_linear_6505_5424)"/>
<path d="M38.1599 17.4017C38.1599 17.6899 38.1431 17.9746 38.1106 18.2549C37.8382 18.4892 37.6016 18.5901 37.3796 18.478L37.5837 17.5273L38.1555 17.1528C38.1588 17.2358 38.1599 17.3188 38.1599 17.4028V17.4017Z" fill="url(#paint11_linear_6505_5424)"/>
<path d="M35.9881 15.4727L33.9229 16.1599L32.8904 19.456L34.1304 16.3169L35.9881 15.4727Z" fill="#FEF8BE"/>
<path d="M31.0957 11.854V13.8328L33.8324 15.7881L31.339 13.6871L31.0957 11.854Z" fill="#FEF8BE"/>
<path d="M29.1968 19.5801L27.7258 21.5488L29.2495 19.7337L32.6005 19.6429L29.1968 19.5801Z" fill="#FEF8BE"/>
<path d="M25.8342 15.3301L28.0216 16.0409" stroke="#E2B681" stroke-width="0.112113" stroke-linecap="round" stroke-linejoin="round"/>
<path d="M28.023 10.9868L26.0991 12.599" stroke="#E2B681" stroke-width="0.112113" stroke-linecap="round" stroke-linejoin="round"/>
<path d="M30.9555 11.7612L30.9275 13.9306" stroke="#E2B681" stroke-width="0.112113" stroke-linecap="round" stroke-linejoin="round"/>
<path d="M33.8323 10.9868L35.755 12.599" stroke="#E2B681" stroke-width="0.112113" stroke-linecap="round" stroke-linejoin="round"/>
<path d="M36.0207 15.3301L33.8323 16.0409" stroke="#E2B681" stroke-width="0.112113" stroke-linecap="round" stroke-linejoin="round"/>
<path d="M24.2717 17.5269L24.8413 20.2961" stroke="#E2B681" stroke-width="0.112113" stroke-linecap="round" stroke-linejoin="round"/>
<path d="M29.1315 19.4575L27.5439 21.5496" stroke="#E2B681" stroke-width="0.112113" stroke-linecap="round" stroke-linejoin="round"/>
<path d="M32.7224 19.4575L34.0577 21.7435" stroke="#E2B681" stroke-width="0.112113" stroke-linecap="round" stroke-linejoin="round"/>
<path d="M37.5826 17.5269L36.9043 20.6929" stroke="#E2B681" stroke-width="0.112113" stroke-linecap="round" stroke-linejoin="round"/>
<path d="M29.2954 24.0264L32.1476 24.0286" stroke="#E2B681" stroke-width="0.112113" stroke-linecap="round" stroke-linejoin="round"/>
<path d="M28.0225 16.0411L29.1313 19.4561H32.7222L33.8322 16.0411L30.9273 13.9312L28.0225 16.0411Z" fill="url(#paint12_linear_6505_5424)"/>
<path d="M27.5438 21.5488L24.8408 20.2954L24.5627 20.8392C25.4686 22.513 27.0158 23.7889 28.8757 24.3382L29.295 24.0265L27.545 21.5488H27.5438Z" fill="url(#paint13_linear_6505_5424)"/>
<path d="M30.9553 11.7613L33.8322 10.9866L33.7795 10.7545C32.9039 10.3789 31.9397 10.1704 30.9273 10.1704C29.9149 10.1704 28.953 10.3789 28.0785 10.7534L28.0225 10.9877L30.9553 11.7624V11.7613Z" fill="url(#paint14_linear_6505_5424)"/>
<path d="M37.0961 21.1778L36.9044 20.6924L34.0579 21.7418L32.1475 24.0289L32.6004 24.4381C34.4974 23.9885 36.1051 22.7923 37.0961 21.1767V21.1778Z" fill="url(#paint15_linear_6505_5424)"/>
<path d="M25.8343 15.33L26.0989 12.5989L25.5765 12.5361C24.4598 13.7638 23.7602 15.3771 23.6997 17.1518L24.2715 17.5263L25.8332 15.33H25.8343Z" fill="url(#paint16_linear_6505_5424)"/>
<path d="M36.0208 15.33L37.5826 17.5263L38.1543 17.1518C38.0938 15.376 37.3942 13.7627 36.2776 12.5361L35.7551 12.5989L36.0197 15.33H36.0208Z" fill="url(#paint17_linear_6505_5424)"/>
<path d="M30.8492 11.5441C30.3099 11.3401 28.6641 10.8221 28.2986 10.8513C29.2415 10.8378 30.4366 11.2751 30.8492 11.5441Z" fill="#EFD48F"/>
<path d="M30.7918 14.5825C30.2873 14.8617 28.8264 15.7799 28.6123 16.077C29.2121 15.3494 30.3198 14.7215 30.7918 14.5825Z" fill="#FCF1D9"/>
<path d="M25.8246 12.7778C25.7304 13.3474 25.5443 15.0627 25.6441 15.4147C25.4456 14.4932 25.6407 13.2353 25.8246 12.7778Z" fill="#EFD48F"/>
<path d="M36.2212 15.3504C36.2044 14.7741 36.0575 13.0543 35.8916 12.728C36.2638 13.5947 36.3131 14.866 36.2212 15.3504Z" fill="#FFD283"/>
<g style="mix-blend-mode:screen" opacity="0.15">
<path d="M32.6546 16.6153C34.1375 15.1323 34.1375 12.728 32.6546 11.2451C31.1717 9.76217 28.7674 9.76217 27.2844 11.2451C25.8015 12.728 25.8015 15.1323 27.2844 16.6153C28.7674 18.0982 31.1717 18.0982 32.6546 16.6153Z" fill="url(#paint18_radial_6505_5424)"/>
</g>
<g style="mix-blend-mode:screen">
<path d="M29.9689 15.179C30.6587 15.179 31.2179 14.6199 31.2179 13.9301C31.2179 13.2403 30.6587 12.6812 29.9689 12.6812C29.2791 12.6812 28.72 13.2403 28.72 13.9301C28.72 14.6199 29.2791 15.179 29.9689 15.179Z" fill="url(#paint19_radial_6505_5424)"/>
</g>
<g style="mix-blend-mode:screen" opacity="0.03">
<path d="M29.9688 13.9304L32.7032 14.8117L29.9688 13.9304ZM29.9688 13.9304L27.2354 13.0481L29.9688 13.9304ZM29.9688 13.9304L29.0864 16.6638L29.9688 13.9304ZM29.9688 13.9304L30.8511 11.196L29.9688 13.9304ZM29.9688 13.9304L32.9734 12.3306L29.9688 13.9304ZM29.9688 13.9304L26.9641 15.5292L29.9688 13.9304ZM29.9688 13.9304L31.5686 16.9351L29.9688 13.9304ZM29.9688 13.9304L28.37 10.9258L29.9688 13.9304ZM29.9688 13.9304L32.127 13.0268L29.9688 13.9304ZM29.9688 13.9304L27.8106 14.833L29.9688 13.9304ZM29.9688 13.9304L30.8713 16.0886L29.9688 13.9304ZM29.9688 13.9304L29.0663 11.7723L29.9688 13.9304ZM29.9688 13.9304L34.2459 11.3126L29.9688 13.9304ZM29.9688 13.9304L25.6917 16.5472L29.9688 13.9304ZM29.9688 13.9304L32.5866 18.2076L29.9688 13.9304ZM29.9688 13.9304L27.3509 9.65332" stroke="white" stroke-width="0.224226" stroke-miterlimit="10"/>
</g>
</g>
<path d="M24.1792 40.3736C23.5099 40.3736 22.9673 39.8309 22.9673 39.1616V36.3846C22.9673 36.0651 23.0469 35.7624 23.1971 35.4978C23.1478 35.3655 23.1209 35.222 23.1209 35.0729V33.9136C23.1209 33.2443 23.6635 32.7017 24.3328 32.7017H27.148C27.8173 32.7017 28.3599 33.2443 28.3599 33.9136V36.9653C28.3599 37.1492 28.3185 37.3241 28.2456 37.4799C28.3185 37.6358 28.3599 37.8107 28.3599 37.9945V38.582C28.3599 39.063 28.1738 39.5137 27.8375 39.8511C27.5011 40.1886 27.0504 40.3736 26.5684 40.3736H24.1803H24.1792Z" fill="#000E2B"/>
<path d="M28.3904 40.3736C27.7211 40.3736 27.1785 39.8309 27.1785 39.1616V34.4932C27.1785 34.0123 27.3646 33.5616 27.7009 33.2241C28.0373 32.8866 28.4879 32.7017 28.97 32.7017H31.3962C32.0655 32.7017 32.6081 33.2443 32.6081 33.9136V38.582C32.6081 39.063 32.422 39.5137 32.0857 39.8511C31.7482 40.1886 31.2975 40.3736 30.8165 40.3736H28.3904Z" fill="#000E2B"/>
<path d="M32.563 40.3736C31.8937 40.3736 31.3511 39.8309 31.3511 39.1616V34.5011C31.3511 34.0089 31.5405 33.556 31.8836 33.2219C32.2244 32.8855 32.6718 32.7017 33.1426 32.7017H33.7301C34.3994 32.7017 34.9421 33.2443 34.9421 33.9136V39.1616C34.9421 39.8309 34.3994 40.3736 33.7301 40.3736H32.563Z" fill="#000E2B"/>
<path d="M35.2867 40.4196C34.7945 40.4196 34.3416 40.2301 34.0086 39.8871C33.6723 39.5463 33.4873 39.1 33.4873 38.6269V33.9585C33.4873 33.2892 34.0299 32.7466 34.6992 32.7466H37.5211C38.1905 32.7466 38.7331 33.2892 38.7331 33.9585V35.1178C38.7331 35.268 38.7062 35.4126 38.6557 35.5449C38.806 35.8106 38.8856 36.1133 38.8856 36.4295V39.2065C38.8856 39.8759 38.3429 40.4185 37.6736 40.4185H35.2856L35.2867 40.4196Z" fill="#000E2B"/>
<path d="M25.3467 36.9642V37.7041C25.3467 37.897 25.4431 37.9934 25.6359 37.9934H27.1461V38.5808C27.1461 38.7434 27.09 38.8813 26.9779 38.9923C26.8658 39.1044 26.729 39.1605 26.5665 39.1605H24.1785V36.3834C24.1785 36.2153 24.2345 36.0785 24.3466 35.972C24.4632 35.8554 24.6011 35.7971 24.7581 35.7971H25.979V35.3699C25.979 35.1715 25.8826 35.0728 25.6886 35.0728H24.3309V33.9136H27.1461V36.9653H25.3456L25.3467 36.9642Z" fill="#FFE861"/>
<path d="M31.3959 38.5815C31.3959 38.744 31.3398 38.8819 31.2277 38.9929C31.1156 39.1051 30.9788 39.1611 30.8163 39.1611H28.3901V34.4927C28.3901 34.3301 28.4462 34.1922 28.5583 34.0813C28.6704 33.9691 28.8072 33.9131 28.9698 33.9131H31.3959V38.5815ZM30.2288 37.994V35.0723H29.5572V37.7048C29.5572 37.8976 29.6537 37.994 29.8476 37.994H30.2288Z" fill="#FFE861"/>
<path d="M32.7312 34.0885C32.8478 33.9719 32.9857 33.9136 33.1426 33.9136H33.7301V39.1616H32.563V34.501C32.563 34.3329 32.619 34.1961 32.7312 34.0896V34.0885Z" fill="#FFE861"/>
<path d="M37.6743 39.2065H35.2863C35.1181 39.2065 34.9814 39.1505 34.8748 39.0383C34.7582 38.9217 34.7 38.7838 34.7 38.6269V33.9585H37.5218V35.1177H36.1563C35.9635 35.1177 35.8671 35.2164 35.8671 35.4148V35.842H37.088C37.2505 35.842 37.3907 35.9003 37.5073 36.018C37.6194 36.1301 37.6754 36.2669 37.6754 36.4295V39.2065H37.6743ZM36.2168 38.0394C36.4097 38.0394 36.5072 37.943 36.5072 37.749V37.0091H35.8659V38.0383H36.2168V38.0394Z" fill="#FFE861"/>
<path d="M18.103 22.3027V11.9076H24.989V8.34014H14.4952C13.3393 8.11591 12.2372 8.23139 12.2372 8.23139C14.6118 8.94331 13.6622 10.6542 12.2372 10.1317C10.8123 9.60926 10.1474 9.21686 10.1945 8.20224C9.4344 10.1317 10.1486 10.6104 11.5455 11.9121C9.60481 11.6284 7.56996 12.4323 6.6226 13.3079C6.05419 13.7104 4.82431 13.7104 4.30298 13.5209C5.69879 14.9885 9.24942 14.207 9.912 14.2541C10.5746 14.3012 11.5926 14.7743 12.2316 15.3898C10.7876 15.2239 7.66413 16.0995 6.6226 18.2061C8.75275 16.9516 12.5624 17.6612 12.4446 18.7981C12.3258 19.9338 10.5993 19.8867 9.60481 19.4842C8.61037 19.0817 5.96001 18.6086 4.42182 20.5022C6.69323 20.0055 8.13277 21.2836 10.3122 21.8509C12.4917 22.4193 12.5153 24.8331 9.79316 24.3118C10.6923 25.5663 13.3427 25.4946 13.7216 25.3769C13.7295 25.3746 13.7384 25.3679 13.7474 25.3589V25.4374H21.2354C23.9228 25.4374 24.7177 23.2557 24.7177 20.8094C23.1145 22.472 19.7544 22.3027 18.1008 22.3027H18.103Z" fill="#02FEFF"/>
<path d="M13.001 25.0081C12.4079 25.0081 11.7352 24.9297 11.1713 24.7357C11.9157 24.5485 12.2532 24.044 12.3137 23.5664C12.4146 22.7793 11.7969 21.7938 10.4212 21.4351C9.74296 21.2579 9.13082 21.0068 8.53774 20.7624C7.62177 20.3857 6.75065 20.0269 5.73267 19.9686C6.36723 19.6345 7.04663 19.546 7.58702 19.546C8.34939 19.546 9.04561 19.7186 9.44474 19.879C9.90104 20.0639 10.4549 20.1693 10.9627 20.1693C12.0715 20.1693 12.7846 19.6727 12.8709 18.8397C12.8911 18.6457 12.8586 18.3508 12.5906 18.0537C12.0749 17.482 10.8327 17.112 9.42456 17.112C8.88977 17.112 8.37405 17.1669 7.89421 17.2723C9.04561 16.2711 10.7677 15.7958 11.8597 15.7958C11.9763 15.7958 12.085 15.8014 12.1825 15.8126L13.4405 15.9572L12.529 15.0794C11.8451 14.4202 10.7329 13.8809 9.94364 13.8248C9.91449 13.8226 9.88198 13.8215 9.84498 13.8215C9.67457 13.8215 9.42904 13.8461 9.11849 13.8764C8.64313 13.9235 7.99175 13.9885 7.32804 13.9885C6.94685 13.9885 6.60042 13.9672 6.28763 13.9235C6.49504 13.8618 6.69908 13.7755 6.87174 13.6533L6.89416 13.6376L6.91434 13.6185C7.61168 12.9728 9.10391 12.2777 10.7318 12.2777C10.9885 12.2777 11.2419 12.2956 11.4841 12.3315L12.8418 12.5299L11.8384 11.5949C11.7487 11.5108 11.6612 11.4301 11.576 11.3516C10.7811 10.6173 10.3484 10.2182 10.3114 9.60265C10.7329 9.99953 11.3652 10.263 12.0906 10.5287C12.3148 10.6105 12.5402 10.652 12.7599 10.652C13.4505 10.652 14.0145 10.2226 14.1008 9.62956C14.1445 9.33358 14.0649 8.98939 13.8026 8.6665C13.9988 8.68668 14.2062 8.71471 14.4147 8.75507L14.4551 8.76292H24.5621V11.4738H17.6761V22.7255H18.5405C19.8533 22.7255 22.3333 22.8174 24.2762 21.8454C24.1125 22.6235 23.8726 23.2435 23.4566 23.8578C22.9566 24.5956 22.6102 25.0048 21.239 25.0048H14.1793V24.3781L13.5301 24.9756C13.4348 24.9891 13.2543 25.0048 13.0021 25.0048L13.001 25.0081Z" fill="#000E2B"/>
<path d="M2.72547 16.9573C2.10661 16.9674 1.67161 17.0548 0 16.3732C1.07068 17.6871 2.44967 18.3038 3.22774 18.3038C4.88253 18.3038 7.20216 15.4494 8.38607 15.4494C6.06645 15.0928 3.41833 16.9461 2.72547 16.9584V16.9573Z" fill="#02FEFF"/>
<path d="M3.22777 17.8749C2.91161 17.8749 2.36674 17.7224 1.76245 17.3581C1.95641 17.385 2.1313 17.394 2.30284 17.394C2.39365 17.394 2.47998 17.3917 2.56855 17.3895C2.62236 17.3883 2.67617 17.3861 2.73111 17.385C3.03942 17.3794 3.452 17.1933 4.07535 16.9096C4.73009 16.6125 5.54179 16.2448 6.39049 16.0239C6.2481 16.1316 6.10235 16.2425 5.95324 16.3569C5.02719 17.0677 3.97669 17.8738 3.22553 17.8738L3.22777 17.8749Z" fill="#000E2B"/>
<path d="M12.1474 33.3967V33.316H6.78052V30.215H7.26485V28.1185H6.78052V25.0174H12.1474V24.856H15.5298V33.3967H12.1474Z" fill="#000E2B"/>
<path d="M19.6523 33.3963V33.3155H14.5276V30.2145H15.0119V28.118H14.5276V25.0169H19.6523V24.8555H23.0359V27.2211H23.7377V30.321H23.0359V33.3963H19.6523Z" fill="#000E2B"/>
<path d="M26.6651 33.3956V33.3149H22.5977V25.0174H26.6651V24.856H31.9445V33.3956H26.6651ZM26.6651 30.2138V28.1173H25.8758V30.2138H26.6651Z" fill="#000E2B"/>
<path d="M35.9537 33.5577V32.3951H31.4916V30.5306H31.1519V24.9362H34.5354V27.4307H35.9537V24.8555H39.3372V26.0427H40.0391V29.1427H39.3372V33.5577H35.9537Z" fill="#000E2B"/>
<path d="M43.2992 32.7977C42.9797 32.9737 42.6209 33.1251 42.2274 33.2507C41.6971 33.4199 41.0917 33.5354 40.4302 33.5937L39.7979 33.6498L38.6084 30.7046L39.743 30.5891C40.0737 30.5555 40.3876 30.5039 40.6746 30.4344C40.7621 30.4131 40.8462 30.3918 40.9258 30.3682H38.8999V24.9352H43.7017V24.8545H47.0853V25.9599H47.7871V29.061H47.0853V30.6115L48.0472 30.8694L46.592 33.763L43.2992 32.7966V32.7977Z" fill="#000E2B"/>
<path d="M46.9856 33.5577V29.7728H46.647V24.9362H51.6909V24.8555H55.0734V33.5577H46.9856Z" fill="#000E2B"/>
<path d="M12.5518 32.4589H7.63672V31.0709H8.12105V27.2613H7.63672V25.8734H12.5518V27.2613H12.0674V31.0709H12.5518V32.4589ZM9.71081 31.0709H10.4777V27.2613H9.71081V31.0709ZM14.6741 32.5396H13.0036V25.7119H14.6741V32.5396Z" fill="white"/>
<path d="M20.1379 32.459H15.3843V31.0711H15.8686V27.2615H15.3843V25.8735H20.1379V27.2615H19.6536V31.0711H20.1379V32.459ZM17.4584 31.0711H18.0638V27.2615H17.4584V31.0711ZM22.1795 28.0765H22.8813V29.4645H22.1795V32.5386H20.509V25.7109H22.1795V28.0754V28.0765Z" fill="white"/>
<path d="M27.1584 25.8735V27.2615H25.0204V31.0711H27.2403V32.459H23.4553V25.8735H27.1595H27.1584ZM27.5217 32.5398V25.7121H29.0868V28.294L29.515 28.1483V25.7109H31.0891V32.5386H29.515V29.6741L29.0868 29.8199V32.5398H27.5217Z" fill="white"/>
<path d="M36.1161 28.2855V29.6735H32.0083V25.7921H33.6788V28.2855H36.1161ZM36.8101 32.6994V31.5368H32.3469V30.1567H38.4806V32.6983H36.8101V32.6994ZM38.4806 28.2855V29.8753H36.8101V25.7114H38.4806V26.8976H39.1824V28.2855H38.4806Z" fill="white"/>
<path d="M41.4259 27.1801V28.1241H43.9439V29.5121H39.7554V25.7921H43.8632V27.1801H41.4259ZM44.1782 29.9639V30.1814C44.1782 30.2733 44.1715 30.3608 44.1581 30.4437C44.1446 30.5267 44.1244 30.6119 44.0975 30.6982L46.8095 31.4247L46.1481 32.7398L43.1782 31.8687C42.8441 32.0952 42.4416 32.2824 41.9674 32.4337C41.4942 32.584 40.9561 32.6871 40.3529 32.7409L39.8282 31.4415C40.1993 31.4034 40.548 31.3462 40.8731 31.2678C41.1983 31.1893 41.4819 31.0973 41.7241 30.9897C41.9662 30.8821 42.1568 30.7599 42.297 30.6231C42.4371 30.4863 42.5066 30.3361 42.5066 30.1747V29.965H44.1771L44.1782 29.9639ZM46.2277 28.2048V30.1253H44.5572V25.7114H46.2277V26.8169H46.9295V28.2048H46.2277Z" fill="white"/>
<path d="M47.5037 27.0994V25.7921H51.6115V29.5121H49.941V28.9145H47.5037V27.6073H49.941V27.0983H47.5037V27.0994ZM54.2181 29.9157V32.6994H47.8422V29.9157H54.2181ZM49.5127 31.0536V31.5615H52.5476V31.0536H49.5127ZM51.8133 28.3181V26.7933L52.5476 26.6319V25.7114H54.2181V29.6331H52.5476V28.1566L51.8133 28.3181Z" fill="white"/>
<path d="M13.2609 28.7534V32.2827H14.4168V28.7534H13.2609ZM11.8102 31.3275V28.7534H10.735V31.3275H9.45354V28.7534H8.37837V31.3275H7.89404V32.2031H12.2956V31.3275H11.8113H11.8102Z" fill="url(#paint20_linear_6505_5424)"/>
<path d="M19.3955 31.3277V28.7536H18.3204V31.3277H17.2015V28.7536H16.1252V31.3277H15.6409V32.2033H19.8799V31.3277H19.3955ZM20.7644 28.7536V32.2829H21.9215V29.2076H22.6233V28.7524H20.7644V28.7536Z" fill="url(#paint21_linear_6505_5424)"/>
<path d="M27.7784 28.7536V32.2829H28.8311V29.6359L29.7718 29.3152V32.2818H30.8324V28.7524H27.7784V28.7536ZM24.7637 31.3277V28.7536H23.7109V32.2022H26.9824V31.3266H24.7626L24.7637 31.3277Z" fill="url(#paint22_linear_6505_5424)"/>
<path d="M32.6035 30.4144V31.2811H37.0667V32.4426H38.2237V30.4144H32.6035ZM37.0667 28.7529V29.6196H38.2237V28.7529H37.0667ZM32.2649 28.7529V29.4178H35.8592V28.7529H32.2649Z" fill="url(#paint23_linear_6505_5424)"/>
<path d="M43.7725 30.8781L43.8521 30.6225C43.8756 30.5485 43.8936 30.4745 43.9048 30.4027C43.9137 30.3444 43.9194 30.2839 43.9216 30.22H42.7635C42.7511 30.4341 42.6558 30.6303 42.4787 30.8052C42.3173 30.9633 42.0986 31.1046 41.8307 31.2234C41.5751 31.3378 41.2735 31.4353 40.9338 31.5172C40.6995 31.5732 40.4506 31.6203 40.1927 31.6562L40.519 32.4668C41.0257 32.4107 41.4854 32.3176 41.889 32.1898C42.3363 32.0474 42.722 31.8692 43.0337 31.6573L43.1334 31.59L46.0136 32.4354L46.4374 31.5934L43.7714 30.8792L43.7725 30.8781ZM44.814 28.7524V29.8691H45.971V28.7524H44.814ZM40.0122 28.7524V29.2547H43.6862V28.7524H40.0122Z" fill="url(#paint24_linear_6505_5424)"/>
<path d="M48.0988 30.1734V32.4437H53.9612V30.1734H48.0988ZM52.8041 31.8192H49.2558V30.7979H52.8041V31.8192ZM52.8041 28.7529V29.3774H53.9612V28.7529H52.8041ZM50.1975 28.7529V29.2552H51.3545V28.7529H50.1975Z" fill="url(#paint25_linear_6505_5424)"/>
<defs>
<linearGradient id="paint0_linear_6505_5424" x1="26.6739" y1="11.3735" x2="27.0887" y2="12.1056" gradientUnits="userSpaceOnUse">
<stop stop-color="#F9E487"/>
<stop offset="0.45" stop-color="#E3B758"/>
<stop offset="0.96" stop-color="#EFA94B"/>
<stop offset="1" stop-color="#CC923E"/>
</linearGradient>
<linearGradient id="paint1_linear_6505_5424" x1="30.8536" y1="20.3701" x2="30.5487" y2="27.8436" gradientUnits="userSpaceOnUse">
<stop stop-color="#F9E487"/>
<stop offset="0.13" stop-color="#EFD173"/>
<stop offset="0.31" stop-color="#E3B758"/>
<stop offset="1" stop-color="#CC923E"/>
</linearGradient>
<linearGradient id="paint2_linear_6505_5424" x1="37.1823" y1="18.8616" x2="40.1477" y2="20.8942" gradientUnits="userSpaceOnUse">
<stop stop-color="#F9E487"/>
<stop offset="0.23" stop-color="#E3B758"/>
<stop offset="1" stop-color="#EFA94B"/>
</linearGradient>
<linearGradient id="paint3_linear_6505_5424" x1="38.001" y1="10.2902" x2="32.8191" y2="12.6525" gradientUnits="userSpaceOnUse">
<stop stop-color="#F9E487"/>
<stop offset="0.31" stop-color="#E3B758"/>
<stop offset="1" stop-color="#CC923E"/>
</linearGradient>
<linearGradient id="paint4_linear_6505_5424" x1="30.7379" y1="23.6362" x2="30.7379" y2="25.2731" gradientUnits="userSpaceOnUse">
<stop stop-color="#F9E487"/>
<stop offset="0.4" stop-color="#E3B758"/>
<stop offset="1" stop-color="#EFA94B"/>
</linearGradient>
<linearGradient id="paint5_linear_6505_5424" x1="31.9488" y1="13.7201" x2="41.6601" y2="12.6584" gradientUnits="userSpaceOnUse">
<stop stop-color="#F9E487"/>
<stop offset="0.13" stop-color="#EFD173"/>
<stop offset="0.31" stop-color="#E3B758"/>
<stop offset="1" stop-color="#CC923E"/>
</linearGradient>
<linearGradient id="paint6_linear_6505_5424" x1="28.627" y1="13.6618" x2="14.494" y2="6.61104" gradientUnits="userSpaceOnUse">
<stop stop-color="#F9E487"/>
<stop offset="0.23" stop-color="#E3B758"/>
<stop offset="1" stop-color="#EFA94B"/>
</linearGradient>
<linearGradient id="paint7_linear_6505_5424" x1="25.5955" y1="18.5662" x2="18.2611" y2="20.7199" gradientUnits="userSpaceOnUse">
<stop stop-color="#F9E487"/>
<stop offset="0.23" stop-color="#E3B758"/>
<stop offset="1" stop-color="#EFA94B"/>
</linearGradient>
<linearGradient id="paint8_linear_6505_5424" x1="27.4019" y1="17.5959" x2="21.0092" y2="25.168" gradientUnits="userSpaceOnUse">
<stop stop-color="#F9E487"/>
<stop offset="0.13" stop-color="#EFD173"/>
<stop offset="0.31" stop-color="#E3B758"/>
<stop offset="1" stop-color="#CC923E"/>
</linearGradient>
<linearGradient id="paint9_linear_6505_5424" x1="33.5991" y1="17.4176" x2="46.6245" y2="27.5381" gradientUnits="userSpaceOnUse">
<stop stop-color="#F9E487"/>
<stop offset="0.13" stop-color="#EFD173"/>
<stop offset="0.31" stop-color="#E3B758"/>
<stop offset="1" stop-color="#CC923E"/>
</linearGradient>
<linearGradient id="paint10_linear_6505_5424" x1="24.3219" y1="17.7012" x2="20.9765" y2="19.3246" gradientUnits="userSpaceOnUse">
<stop stop-color="#F9E487"/>
<stop offset="0.23" stop-color="#E3B758"/>
<stop offset="1" stop-color="#EFA94B"/>
</linearGradient>
<linearGradient id="paint11_linear_6505_5424" x1="36.3617" y1="17.0261" x2="41.085" y2="19.6743" gradientUnits="userSpaceOnUse">
<stop stop-color="#F9E487"/>
<stop offset="0.31" stop-color="#E3B758"/>
<stop offset="1" stop-color="#CC923E"/>
</linearGradient>
<linearGradient id="paint12_linear_6505_5424" x1="29.6896" y1="14.0556" x2="32.4644" y2="19.7734" gradientUnits="userSpaceOnUse">
<stop stop-color="#E3B758"/>
<stop offset="0.44" stop-color="#2D1E0B"/>
<stop offset="1" stop-color="#190D00"/>
</linearGradient>
<linearGradient id="paint13_linear_6505_5424" x1="27.7199" y1="21.4591" x2="26.1648" y2="23.1341" gradientUnits="userSpaceOnUse">
<stop stop-color="#E3B758"/>
<stop offset="0.44" stop-color="#2D1E0B"/>
<stop offset="1" stop-color="#190D00"/>
</linearGradient>
<linearGradient id="paint14_linear_6505_5424" x1="30.3555" y1="12.4127" x2="32.3579" y2="7.25659" gradientUnits="userSpaceOnUse">
<stop stop-color="#E3B758"/>
<stop offset="0.44" stop-color="#2D1E0B"/>
<stop offset="1" stop-color="#190D00"/>
</linearGradient>
<linearGradient id="paint15_linear_6505_5424" x1="33.1027" y1="20.5892" x2="35.6824" y2="23.8013" gradientUnits="userSpaceOnUse">
<stop stop-color="#E3B758"/>
<stop offset="0.44" stop-color="#2D1E0B"/>
<stop offset="1" stop-color="#190D00"/>
</linearGradient>
<linearGradient id="paint16_linear_6505_5424" x1="23.3768" y1="14.4824" x2="29.7157" y2="16.5162" gradientUnits="userSpaceOnUse">
<stop stop-color="#E3B758"/>
<stop offset="0.44" stop-color="#2D1E0B"/>
<stop offset="1" stop-color="#190D00"/>
</linearGradient>
<linearGradient id="paint17_linear_6505_5424" x1="34.7439" y1="14.9253" x2="38.0815" y2="15.0867" gradientUnits="userSpaceOnUse">
<stop stop-color="#E3B758"/>
<stop offset="0.44" stop-color="#2D1E0B"/>
<stop offset="1" stop-color="#190D00"/>
</linearGradient>
<radialGradient id="paint18_radial_6505_5424" cx="0" cy="0" r="1" gradientUnits="userSpaceOnUse" gradientTransform="translate(29.9695 13.9302) rotate(-45) scale(3.79728)">
<stop stop-color="#200000"/>
<stop offset="0.73" stop-color="#9C4122"/>
<stop offset="1" stop-color="#200000"/>
</radialGradient>
<radialGradient id="paint19_radial_6505_5424" cx="0" cy="0" r="1" gradientUnits="userSpaceOnUse" gradientTransform="translate(29.97 13.9301) rotate(-45) scale(1.24894)">
<stop offset="0.15" stop-color="white"/>
<stop offset="0.16" stop-color="#F5F5F5"/>
<stop offset="0.19" stop-color="#C7C7C7"/>
<stop offset="0.23" stop-color="#9C9C9C"/>
<stop offset="0.27" stop-color="#777777"/>
<stop offset="0.32" stop-color="#565656"/>
<stop offset="0.37" stop-color="#3B3B3B"/>
<stop offset="0.42" stop-color="#252525"/>
<stop offset="0.49" stop-color="#141414"/>
<stop offset="0.57" stop-color="#080808"/>
<stop offset="0.68" stop-color="#010101"/>
<stop offset="1"/>
</radialGradient>
<linearGradient id="paint20_linear_6505_5424" x1="11.1554" y1="28.7781" x2="11.1554" y2="32.2256" gradientUnits="userSpaceOnUse">
<stop stop-color="white"/>
<stop offset="0.35" stop-color="#DDDDDD"/>
<stop offset="0.77" stop-color="#BBBBBB"/>
<stop offset="1" stop-color="#AFAFAF"/>
</linearGradient>
<linearGradient id="paint21_linear_6505_5424" x1="19.1332" y1="28.7782" x2="19.1332" y2="32.2257" gradientUnits="userSpaceOnUse">
<stop stop-color="white"/>
<stop offset="0.35" stop-color="#DDDDDD"/>
<stop offset="0.77" stop-color="#BBBBBB"/>
<stop offset="1" stop-color="#AFAFAF"/>
</linearGradient>
<linearGradient id="paint22_linear_6505_5424" x1="27.2717" y1="28.6919" x2="27.2717" y2="33.45" gradientUnits="userSpaceOnUse">
<stop stop-color="white"/>
<stop offset="0.18" stop-color="#C7FEFF"/>
<stop offset="0.48" stop-color="#74FEFF"/>
<stop offset="0.73" stop-color="#36FEFF"/>
<stop offset="0.91" stop-color="#10FEFF"/>
<stop offset="1" stop-color="#02FEFF"/>
</linearGradient>
<linearGradient id="paint23_linear_6505_5424" x1="35.2449" y1="28.6913" x2="35.2449" y2="33.4494" gradientUnits="userSpaceOnUse">
<stop stop-color="white"/>
<stop offset="0.18" stop-color="#C7FEFF"/>
<stop offset="0.48" stop-color="#74FEFF"/>
<stop offset="0.73" stop-color="#36FEFF"/>
<stop offset="0.91" stop-color="#10FEFF"/>
<stop offset="1" stop-color="#02FEFF"/>
</linearGradient>
<linearGradient id="paint24_linear_6505_5424" x1="43.2254" y1="28.7782" x2="43.2254" y2="32.2257" gradientUnits="userSpaceOnUse">
<stop stop-color="white"/>
<stop offset="0.35" stop-color="#DDDDDD"/>
<stop offset="0.77" stop-color="#BBBBBB"/>
<stop offset="1" stop-color="#AFAFAF"/>
</linearGradient>
<linearGradient id="paint25_linear_6505_5424" x1="51.0294" y1="28.7776" x2="51.0294" y2="32.2251" gradientUnits="userSpaceOnUse">
<stop stop-color="white"/>
<stop offset="0.35" stop-color="#DDDDDD"/>
<stop offset="0.77" stop-color="#BBBBBB"/>
<stop offset="1" stop-color="#AFAFAF"/>
</linearGradient>
</defs>
</svg>
