<svg width="13" height="15" viewBox="0 0 13 15" fill="none" xmlns="http://www.w3.org/2000/svg">
<path d="M10.5 14.5H2.1C1.21634 14.5 0.5 13.7837 0.5 12.9V3.1C0.5 2.21635 1.21635 1.5 2.1 1.5H9.2201C9.4588 1.5 9.68771 1.59482 9.8565 1.7636L11.8364 3.7435C12.0052 3.91229 12.1 4.1412 12.1 4.3799V12.9C12.1 13.7837 11.3837 14.5 10.5 14.5Z" stroke="#FFD600"/>
<path d="M9.09998 4.15V1.84497C9.09998 1.53316 9.47697 1.377 9.69746 1.59749L10.85 2.75L12.0025 3.90251C12.223 4.123 12.0668 4.5 11.755 4.5H9.44998C9.25668 4.5 9.09998 4.3433 9.09998 4.15Z" stroke="#FFD600"/>
<line x1="3.29999" y1="6.1001" x2="7.89999" y2="6.1001" stroke="#FFD600" stroke-linecap="round"/>
<line x1="3.29999" y1="10.2998" x2="9.29999" y2="10.2998" stroke="#FFD600" stroke-linecap="round"/>
</svg>
